<?xml version="1.0" encoding="iso-8859-1"?>
<!-- Uploaded to: SVG Repo, www.svgrepo.com, Generator: SVG Repo Mixer Tools -->
<svg version="1.1" id="Layer_1" xmlns="http://www.w3.org/2000/svg" xmlns:xlink="http://www.w3.org/1999/xlink" 
	 viewBox="0 0 512.002 512.002" xml:space="preserve">
<polygon style="fill:#25BBCC;" points="492.31,399.474 492.31,433.233 458.551,433.233 424.793,365.716 "/>
<g>
	<polygon style="fill:#78E3EC;" points="458.551,365.716 458.551,433.233 19.692,433.233 19.692,399.474 	"/>
	<polygon style="fill:#78E3EC;" points="492.31,320.705 492.31,399.474 458.551,399.474 424.793,360.089 466.991,320.705 	"/>
</g>
<g>
	<polygon style="fill:#FF0F47;" points="87.209,180.045 87.209,286.946 53.451,286.946 30.945,233.496 53.451,180.045 	"/>
	<polygon style="fill:#FF0F47;" points="188.484,135.034 188.484,286.946 154.726,286.946 132.22,210.99 154.726,135.034 	"/>
	<polygon style="fill:#FF0F47;" points="289.76,90.022 289.76,286.946 256.001,286.946 233.496,188.484 256.001,90.022 	"/>
	<polygon style="fill:#FF0F47;" points="391.035,45.011 391.035,286.946 357.276,286.946 334.771,165.979 357.276,45.011 	"/>
	<polygon style="fill:#FF0F47;" points="492.31,0 492.31,286.946 458.551,286.946 436.046,143.473 458.551,0 	"/>
</g>
<g>
	<rect x="19.692" y="180.045" style="fill:#FF6176;" width="33.758" height="106.902"/>
	<rect x="120.969" y="135.034" style="fill:#FF6176;" width="33.758" height="151.913"/>
	<rect x="222.244" y="90.022" style="fill:#FF6176;" width="33.758" height="196.924"/>
	<rect x="323.519" y="45.011" style="fill:#FF6176;" width="33.758" height="241.935"/>
	<rect x="424.794" style="fill:#FF6176;" width="33.758" height="286.946"/>
</g>
<polygon style="fill:#D0FBFD;" points="450.112,320.705 433.233,320.705 424.793,340.395 416.353,320.705 399.474,320.705 
	391.035,340.395 382.595,320.705 365.716,320.705 357.276,340.395 348.837,320.705 331.957,320.705 323.518,340.395 
	315.078,320.705 298.199,320.705 289.76,340.395 281.32,320.705 264.441,320.705 256.001,340.395 247.562,320.705 230.682,320.705 
	222.243,340.395 213.803,320.705 196.924,320.705 188.484,340.395 180.045,320.705 163.166,320.705 154.726,340.395 
	146.286,320.705 129.407,320.705 120.968,340.395 112.528,320.705 95.649,320.705 87.209,340.395 78.77,320.705 61.89,320.705 
	53.451,340.395 45.011,320.705 19.692,320.705 19.692,399.474 458.551,399.474 458.551,340.395 "/>
<polygon style="fill:#FF0F47;" points="492.31,466.989 447.299,466.989 424.793,489.494 447.299,512 492.31,512 "/>
<polygon style="fill:#D0FBFD;" points="447.299,466.989 402.287,466.989 379.782,489.494 402.287,512 447.299,512 "/>
<polygon style="fill:#FFB082;" points="19.692,489.492 87.209,512 109.715,489.494 87.209,466.989 "/>
<g>
	<rect x="87.21" y="466.991" style="fill:#25BBCC;" width="315.078" height="45.011"/>
	<path style="fill:#25BBCC;" d="M45.011,343.208c0,4.661,3.778,8.44,8.44,8.44s8.44-3.779,8.44-8.44v-22.506H45.011V343.208z"/>
	<path style="fill:#25BBCC;" d="M78.77,343.208c0,4.661,3.778,8.44,8.44,8.44s8.44-3.779,8.44-8.44v-22.506H78.77V343.208z"/>
	<path style="fill:#25BBCC;" d="M112.528,343.208c0,4.661,3.778,8.44,8.44,8.44c4.662,0,8.44-3.779,8.44-8.44v-22.506h-16.879
		V343.208z"/>
	<path style="fill:#25BBCC;" d="M146.286,343.208c0,4.661,3.778,8.44,8.44,8.44c4.662,0,8.44-3.779,8.44-8.44v-22.506h-16.879
		V343.208z"/>
	<path style="fill:#25BBCC;" d="M180.045,343.208c0,4.661,3.778,8.44,8.44,8.44s8.44-3.779,8.44-8.44v-22.506h-16.879V343.208z"/>
	<path style="fill:#25BBCC;" d="M213.803,343.208c0,4.661,3.778,8.44,8.44,8.44c4.662,0,8.44-3.779,8.44-8.44v-22.506h-16.879
		V343.208z"/>
	<path style="fill:#25BBCC;" d="M247.562,343.208c0,4.661,3.778,8.44,8.44,8.44s8.44-3.779,8.44-8.44v-22.506h-16.879V343.208z"/>
	<path style="fill:#25BBCC;" d="M281.32,343.208c0,4.661,3.778,8.44,8.44,8.44c4.662,0,8.44-3.779,8.44-8.44v-22.506H281.32V343.208
		z"/>
	<path style="fill:#25BBCC;" d="M315.078,343.208c0,4.661,3.778,8.44,8.44,8.44c4.662,0,8.44-3.779,8.44-8.44v-22.506h-16.879
		V343.208z"/>
	<path style="fill:#25BBCC;" d="M348.837,343.208c0,4.661,3.778,8.44,8.44,8.44c4.662,0,8.44-3.779,8.44-8.44v-22.506h-16.879
		V343.208z"/>
	<path style="fill:#25BBCC;" d="M382.595,343.208c0,4.661,3.778,8.44,8.44,8.44c4.662,0,8.44-3.779,8.44-8.44v-22.506h-16.879
		V343.208z"/>
	<path style="fill:#25BBCC;" d="M416.353,343.208c0,4.661,3.778,8.44,8.44,8.44c4.662,0,8.44-3.779,8.44-8.44v-22.506h-16.879
		V343.208z"/>
	<path style="fill:#25BBCC;" d="M450.112,320.702v22.506c0,4.661,3.778,8.44,8.44,8.44c4.662,0,8.44-3.779,8.44-8.44v-22.506
		H450.112z"/>
</g>
<path style="fill:#2F5E88;" d="M492.31,295.384H19.692c-4.662,0-8.44-3.779-8.44-8.44c0-4.661,3.778-8.44,8.44-8.44H492.31
	c4.662,0,8.44,3.779,8.44,8.44S496.971,295.384,492.31,295.384z"/>
</svg>